<svg xmlns="http://www.w3.org/2000/svg" fill="none" viewBox="0 0 51 51">
  <g clip-path="url(#a)">
    <path fill="#41479b" d="M49.65 41.41H1.375a.86.86 0 0 1-.863-.862V9.513c0-.476.386-.862.863-.862H49.65c.476 0 .862.386.862.862v31.035a.86.86 0 0 1-.862.862"/>
    <path fill="#f5f5f5" d="M50.512 9.513a.86.86 0 0 0-.862-.862h-3.857l-15.97 10.464V8.65h-8.621v10.464L5.232 8.65H1.374a.86.86 0 0 0-.863.862v2.23l13.702 8.977H.512v8.62h13.702L.512 38.319v2.23c0 .476.386.862.863.862H5.23l15.971-10.464V41.41h8.62V30.946L45.794 41.41h3.857a.86.86 0 0 0 .863-.862v-2.23L36.81 29.341h13.701v-8.62H36.81l13.702-8.978z"/>
    <path fill="#ff4b55" d="M50.512 22.444H28.1V8.651h-5.173v13.793H.512v5.173h22.414V41.41H28.1V27.617h22.413z"/>
    <path fill="#ff4b55" d="M17.988 29.34.538 40.67a.85.85 0 0 0 .837.74h1.187l18.593-12.068zM34.34 29.34h-3.167L49.74 41.393a.854.854 0 0 0 .774-.844v-.71zM.513 10.465 16.312 20.72h3.167L1.015 8.735a.86.86 0 0 0-.502.778zM32.99 20.72 50.483 9.365a.85.85 0 0 0-.832-.714h-1.235l-18.592 12.07z"/>
  </g>
  <defs>
    <clipPath id="a">
      <path fill="#fff" d="M.512.03h50v50h-50z"/>
    </clipPath>
  </defs>
</svg>
